<mxfile host="65bd71144e">
    <diagram name="Page-1" id="bd83a815-5ea8-2e97-e5ec-87c9f400f2fa">
        <mxGraphModel dx="1813" dy="1408" grid="1" gridSize="10" guides="1" tooltips="1" connect="1" arrows="1" fold="1" page="1" pageScale="1.5" pageWidth="1169" pageHeight="826" background="none" math="0" shadow="0">
            <root>
                <mxCell id="0" style=";html=1;"/>
                <mxCell id="1" style=";html=1;" parent="0"/>
                <mxCell id="1516e18e63f93b96-3" value="Карта текущего It-ландшафта" style="text;strokeColor=none;fillColor=none;html=1;fontSize=24;fontStyle=1;verticalAlign=middle;align=center;rounded=0;shadow=1;" parent="1" vertex="1">
                    <mxGeometry x="480" y="80" width="780" height="40" as="geometry"/>
                </mxCell>
                <mxCell id="1myl8zjfkGDdgsmhDYGg-34" value="" style="shape=table;startSize=0;container=1;collapsible=0;childLayout=tableLayout;" parent="1" vertex="1">
                    <mxGeometry x="140" y="230" width="1480" height="851" as="geometry"/>
                </mxCell>
                <mxCell id="1myl8zjfkGDdgsmhDYGg-35" value="" style="shape=tableRow;horizontal=0;startSize=0;swimlaneHead=0;swimlaneBody=0;strokeColor=inherit;top=0;left=0;bottom=0;right=0;collapsible=0;dropTarget=0;fillColor=none;points=[[0,0.5],[1,0.5]];portConstraint=eastwest;" parent="1myl8zjfkGDdgsmhDYGg-34" vertex="1">
                    <mxGeometry width="1480" height="107" as="geometry"/>
                </mxCell>
                <mxCell id="1myl8zjfkGDdgsmhDYGg-36" value="" style="shape=partialRectangle;html=1;whiteSpace=wrap;connectable=0;strokeColor=inherit;overflow=hidden;fillColor=none;top=0;left=0;bottom=0;right=0;pointerEvents=1;" parent="1myl8zjfkGDdgsmhDYGg-35" vertex="1">
                    <mxGeometry width="211" height="107" as="geometry">
                        <mxRectangle width="211" height="107" as="alternateBounds"/>
                    </mxGeometry>
                </mxCell>
                <mxCell id="1myl8zjfkGDdgsmhDYGg-37" value="&lt;b&gt;продажи в сети отделений&lt;/b&gt;" style="shape=partialRectangle;html=1;whiteSpace=wrap;connectable=0;strokeColor=inherit;overflow=hidden;fillColor=none;top=0;left=0;bottom=0;right=0;pointerEvents=1;align=center;verticalAlign=middle;fontFamily=Helvetica;fontSize=12;fontColor=default;" parent="1myl8zjfkGDdgsmhDYGg-35" vertex="1">
                    <mxGeometry x="211" width="212" height="107" as="geometry">
                        <mxRectangle width="212" height="107" as="alternateBounds"/>
                    </mxGeometry>
                </mxCell>
                <mxCell id="1myl8zjfkGDdgsmhDYGg-38" value="&lt;b&gt;продажи через кол центр&lt;/b&gt;" style="shape=partialRectangle;html=1;whiteSpace=wrap;connectable=0;strokeColor=inherit;overflow=hidden;fillColor=none;top=0;left=0;bottom=0;right=0;pointerEvents=1;" parent="1myl8zjfkGDdgsmhDYGg-35" vertex="1">
                    <mxGeometry x="423" width="211" height="107" as="geometry">
                        <mxRectangle width="211" height="107" as="alternateBounds"/>
                    </mxGeometry>
                </mxCell>
                <mxCell id="1myl8zjfkGDdgsmhDYGg-39" value="&lt;div&gt;&lt;b&gt;digital-оповещения&amp;nbsp;&lt;/b&gt;&lt;/div&gt;&lt;div&gt;&lt;b&gt;клиентов&lt;/b&gt;&lt;/div&gt;" style="shape=partialRectangle;html=1;whiteSpace=wrap;connectable=0;strokeColor=inherit;overflow=hidden;fillColor=none;top=0;left=0;bottom=0;right=0;pointerEvents=1;" parent="1myl8zjfkGDdgsmhDYGg-35" vertex="1">
                    <mxGeometry x="634" width="212" height="107" as="geometry">
                        <mxRectangle width="212" height="107" as="alternateBounds"/>
                    </mxGeometry>
                </mxCell>
                <mxCell id="1myl8zjfkGDdgsmhDYGg-40" value="обслуживание депозитных процессов" style="shape=partialRectangle;html=1;whiteSpace=wrap;connectable=0;strokeColor=inherit;overflow=hidden;fillColor=none;top=0;left=0;bottom=0;right=0;pointerEvents=1;fontStyle=1" parent="1myl8zjfkGDdgsmhDYGg-35" vertex="1">
                    <mxGeometry x="846" width="254" height="107" as="geometry">
                        <mxRectangle width="254" height="107" as="alternateBounds"/>
                    </mxGeometry>
                </mxCell>
                <mxCell id="1myl8zjfkGDdgsmhDYGg-41" value="обслуживание кредитных процессов" style="shape=partialRectangle;html=1;whiteSpace=wrap;connectable=0;strokeColor=inherit;overflow=hidden;fillColor=none;top=0;left=0;bottom=0;right=0;pointerEvents=1;fontStyle=1" parent="1myl8zjfkGDdgsmhDYGg-35" vertex="1">
                    <mxGeometry x="1100" width="169" height="107" as="geometry">
                        <mxRectangle width="169" height="107" as="alternateBounds"/>
                    </mxGeometry>
                </mxCell>
                <mxCell id="1myl8zjfkGDdgsmhDYGg-42" value="управление договорами" style="shape=partialRectangle;html=1;whiteSpace=wrap;connectable=0;strokeColor=inherit;overflow=hidden;fillColor=none;top=0;left=0;bottom=0;right=0;pointerEvents=1;fontStyle=1" parent="1myl8zjfkGDdgsmhDYGg-35" vertex="1">
                    <mxGeometry x="1269" width="211" height="107" as="geometry">
                        <mxRectangle width="211" height="107" as="alternateBounds"/>
                    </mxGeometry>
                </mxCell>
                <mxCell id="1myl8zjfkGDdgsmhDYGg-45" value="" style="shape=tableRow;horizontal=0;startSize=0;swimlaneHead=0;swimlaneBody=0;strokeColor=inherit;top=0;left=0;bottom=0;right=0;collapsible=0;dropTarget=0;fillColor=none;points=[[0,0.5],[1,0.5]];portConstraint=eastwest;" parent="1myl8zjfkGDdgsmhDYGg-34" vertex="1">
                    <mxGeometry y="107" width="1480" height="106" as="geometry"/>
                </mxCell>
                <mxCell id="1myl8zjfkGDdgsmhDYGg-46" value="&lt;strong&gt;Фронт офис&lt;/strong&gt;" style="shape=partialRectangle;html=1;whiteSpace=wrap;connectable=0;strokeColor=inherit;overflow=hidden;fillColor=none;top=0;left=0;bottom=0;right=0;pointerEvents=1;" parent="1myl8zjfkGDdgsmhDYGg-45" vertex="1">
                    <mxGeometry width="211" height="106" as="geometry">
                        <mxRectangle width="211" height="106" as="alternateBounds"/>
                    </mxGeometry>
                </mxCell>
                <mxCell id="1myl8zjfkGDdgsmhDYGg-47" value="" style="shape=partialRectangle;html=1;whiteSpace=wrap;connectable=0;strokeColor=inherit;overflow=hidden;fillColor=none;top=0;left=0;bottom=0;right=0;pointerEvents=1;" parent="1myl8zjfkGDdgsmhDYGg-45" vertex="1">
                    <mxGeometry x="211" width="212" height="106" as="geometry">
                        <mxRectangle width="212" height="106" as="alternateBounds"/>
                    </mxGeometry>
                </mxCell>
                <mxCell id="1myl8zjfkGDdgsmhDYGg-48" value="" style="shape=partialRectangle;html=1;whiteSpace=wrap;connectable=0;strokeColor=inherit;overflow=hidden;fillColor=none;top=0;left=0;bottom=0;right=0;pointerEvents=1;" parent="1myl8zjfkGDdgsmhDYGg-45" vertex="1">
                    <mxGeometry x="423" width="211" height="106" as="geometry">
                        <mxRectangle width="211" height="106" as="alternateBounds"/>
                    </mxGeometry>
                </mxCell>
                <mxCell id="1myl8zjfkGDdgsmhDYGg-49" value="" style="shape=partialRectangle;html=1;whiteSpace=wrap;connectable=0;strokeColor=inherit;overflow=hidden;fillColor=none;top=0;left=0;bottom=0;right=0;pointerEvents=1;" parent="1myl8zjfkGDdgsmhDYGg-45" vertex="1">
                    <mxGeometry x="634" width="212" height="106" as="geometry">
                        <mxRectangle width="212" height="106" as="alternateBounds"/>
                    </mxGeometry>
                </mxCell>
                <mxCell id="1myl8zjfkGDdgsmhDYGg-50" value="" style="shape=partialRectangle;html=1;whiteSpace=wrap;connectable=0;strokeColor=inherit;overflow=hidden;fillColor=none;top=0;left=0;bottom=0;right=0;pointerEvents=1;" parent="1myl8zjfkGDdgsmhDYGg-45" vertex="1">
                    <mxGeometry x="846" width="254" height="106" as="geometry">
                        <mxRectangle width="254" height="106" as="alternateBounds"/>
                    </mxGeometry>
                </mxCell>
                <mxCell id="1myl8zjfkGDdgsmhDYGg-51" value="" style="shape=partialRectangle;html=1;whiteSpace=wrap;connectable=0;strokeColor=inherit;overflow=hidden;fillColor=none;top=0;left=0;bottom=0;right=0;pointerEvents=1;" parent="1myl8zjfkGDdgsmhDYGg-45" vertex="1">
                    <mxGeometry x="1100" width="169" height="106" as="geometry">
                        <mxRectangle width="169" height="106" as="alternateBounds"/>
                    </mxGeometry>
                </mxCell>
                <mxCell id="1myl8zjfkGDdgsmhDYGg-52" value="" style="shape=partialRectangle;html=1;whiteSpace=wrap;connectable=0;strokeColor=inherit;overflow=hidden;fillColor=none;top=0;left=0;bottom=0;right=0;pointerEvents=1;" parent="1myl8zjfkGDdgsmhDYGg-45" vertex="1">
                    <mxGeometry x="1269" width="211" height="106" as="geometry">
                        <mxRectangle width="211" height="106" as="alternateBounds"/>
                    </mxGeometry>
                </mxCell>
                <mxCell id="1myl8zjfkGDdgsmhDYGg-55" value="" style="shape=tableRow;horizontal=0;startSize=0;swimlaneHead=0;swimlaneBody=0;strokeColor=inherit;top=0;left=0;bottom=0;right=0;collapsible=0;dropTarget=0;fillColor=none;points=[[0,0.5],[1,0.5]];portConstraint=eastwest;" parent="1myl8zjfkGDdgsmhDYGg-34" vertex="1">
                    <mxGeometry y="213" width="1480" height="107" as="geometry"/>
                </mxCell>
                <mxCell id="1myl8zjfkGDdgsmhDYGg-56" value="&#xa;&lt;strong&gt;Управление обслуживанием&amp;nbsp;&lt;br&gt;депозитных продуктов&lt;/strong&gt;&#xa;&#xa;" style="shape=partialRectangle;html=1;whiteSpace=wrap;connectable=0;strokeColor=inherit;overflow=hidden;fillColor=none;top=0;left=0;bottom=0;right=0;pointerEvents=1;" parent="1myl8zjfkGDdgsmhDYGg-55" vertex="1">
                    <mxGeometry width="211" height="107" as="geometry">
                        <mxRectangle width="211" height="107" as="alternateBounds"/>
                    </mxGeometry>
                </mxCell>
                <mxCell id="1myl8zjfkGDdgsmhDYGg-57" value="" style="shape=partialRectangle;html=1;whiteSpace=wrap;connectable=0;strokeColor=inherit;overflow=hidden;fillColor=none;top=0;left=0;bottom=0;right=0;pointerEvents=1;" parent="1myl8zjfkGDdgsmhDYGg-55" vertex="1">
                    <mxGeometry x="211" width="212" height="107" as="geometry">
                        <mxRectangle width="212" height="107" as="alternateBounds"/>
                    </mxGeometry>
                </mxCell>
                <mxCell id="1myl8zjfkGDdgsmhDYGg-58" value="" style="shape=partialRectangle;html=1;whiteSpace=wrap;connectable=0;strokeColor=inherit;overflow=hidden;fillColor=none;top=0;left=0;bottom=0;right=0;pointerEvents=1;" parent="1myl8zjfkGDdgsmhDYGg-55" vertex="1">
                    <mxGeometry x="423" width="211" height="107" as="geometry">
                        <mxRectangle width="211" height="107" as="alternateBounds"/>
                    </mxGeometry>
                </mxCell>
                <mxCell id="1myl8zjfkGDdgsmhDYGg-59" value="" style="shape=partialRectangle;html=1;whiteSpace=wrap;connectable=0;strokeColor=inherit;overflow=hidden;fillColor=none;top=0;left=0;bottom=0;right=0;pointerEvents=1;" parent="1myl8zjfkGDdgsmhDYGg-55" vertex="1">
                    <mxGeometry x="634" width="212" height="107" as="geometry">
                        <mxRectangle width="212" height="107" as="alternateBounds"/>
                    </mxGeometry>
                </mxCell>
                <mxCell id="1myl8zjfkGDdgsmhDYGg-60" value="" style="shape=partialRectangle;html=1;whiteSpace=wrap;connectable=0;strokeColor=inherit;overflow=hidden;fillColor=none;top=0;left=0;bottom=0;right=0;pointerEvents=1;" parent="1myl8zjfkGDdgsmhDYGg-55" vertex="1">
                    <mxGeometry x="846" width="254" height="107" as="geometry">
                        <mxRectangle width="254" height="107" as="alternateBounds"/>
                    </mxGeometry>
                </mxCell>
                <mxCell id="1myl8zjfkGDdgsmhDYGg-61" value="" style="shape=partialRectangle;html=1;whiteSpace=wrap;connectable=0;strokeColor=inherit;overflow=hidden;fillColor=none;top=0;left=0;bottom=0;right=0;pointerEvents=1;" parent="1myl8zjfkGDdgsmhDYGg-55" vertex="1">
                    <mxGeometry x="1100" width="169" height="107" as="geometry">
                        <mxRectangle width="169" height="107" as="alternateBounds"/>
                    </mxGeometry>
                </mxCell>
                <mxCell id="1myl8zjfkGDdgsmhDYGg-62" value="" style="shape=partialRectangle;html=1;whiteSpace=wrap;connectable=0;strokeColor=inherit;overflow=hidden;fillColor=none;top=0;left=0;bottom=0;right=0;pointerEvents=1;" parent="1myl8zjfkGDdgsmhDYGg-55" vertex="1">
                    <mxGeometry x="1269" width="211" height="107" as="geometry">
                        <mxRectangle width="211" height="107" as="alternateBounds"/>
                    </mxGeometry>
                </mxCell>
                <mxCell id="1myl8zjfkGDdgsmhDYGg-65" value="" style="shape=tableRow;horizontal=0;startSize=0;swimlaneHead=0;swimlaneBody=0;strokeColor=inherit;top=0;left=0;bottom=0;right=0;collapsible=0;dropTarget=0;fillColor=none;points=[[0,0.5],[1,0.5]];portConstraint=eastwest;" parent="1myl8zjfkGDdgsmhDYGg-34" vertex="1">
                    <mxGeometry y="320" width="1480" height="106" as="geometry"/>
                </mxCell>
                <mxCell id="1myl8zjfkGDdgsmhDYGg-66" value="&#xa;&lt;strong&gt;Управление обслуживанием&amp;nbsp;&lt;br&gt;кредитных продуктов&lt;/strong&gt;&#xa;&#xa;" style="shape=partialRectangle;html=1;whiteSpace=wrap;connectable=0;strokeColor=inherit;overflow=hidden;fillColor=none;top=0;left=0;bottom=0;right=0;pointerEvents=1;" parent="1myl8zjfkGDdgsmhDYGg-65" vertex="1">
                    <mxGeometry width="211" height="106" as="geometry">
                        <mxRectangle width="211" height="106" as="alternateBounds"/>
                    </mxGeometry>
                </mxCell>
                <mxCell id="1myl8zjfkGDdgsmhDYGg-67" value="" style="shape=partialRectangle;html=1;whiteSpace=wrap;connectable=0;strokeColor=inherit;overflow=hidden;fillColor=none;top=0;left=0;bottom=0;right=0;pointerEvents=1;" parent="1myl8zjfkGDdgsmhDYGg-65" vertex="1">
                    <mxGeometry x="211" width="212" height="106" as="geometry">
                        <mxRectangle width="212" height="106" as="alternateBounds"/>
                    </mxGeometry>
                </mxCell>
                <mxCell id="1myl8zjfkGDdgsmhDYGg-68" value="" style="shape=partialRectangle;html=1;whiteSpace=wrap;connectable=0;strokeColor=inherit;overflow=hidden;fillColor=none;top=0;left=0;bottom=0;right=0;pointerEvents=1;" parent="1myl8zjfkGDdgsmhDYGg-65" vertex="1">
                    <mxGeometry x="423" width="211" height="106" as="geometry">
                        <mxRectangle width="211" height="106" as="alternateBounds"/>
                    </mxGeometry>
                </mxCell>
                <mxCell id="1myl8zjfkGDdgsmhDYGg-69" value="" style="shape=partialRectangle;html=1;whiteSpace=wrap;connectable=0;strokeColor=inherit;overflow=hidden;fillColor=none;top=0;left=0;bottom=0;right=0;pointerEvents=1;" parent="1myl8zjfkGDdgsmhDYGg-65" vertex="1">
                    <mxGeometry x="634" width="212" height="106" as="geometry">
                        <mxRectangle width="212" height="106" as="alternateBounds"/>
                    </mxGeometry>
                </mxCell>
                <mxCell id="1myl8zjfkGDdgsmhDYGg-70" value="" style="shape=partialRectangle;html=1;whiteSpace=wrap;connectable=0;strokeColor=inherit;overflow=hidden;fillColor=none;top=0;left=0;bottom=0;right=0;pointerEvents=1;" parent="1myl8zjfkGDdgsmhDYGg-65" vertex="1">
                    <mxGeometry x="846" width="254" height="106" as="geometry">
                        <mxRectangle width="254" height="106" as="alternateBounds"/>
                    </mxGeometry>
                </mxCell>
                <mxCell id="1myl8zjfkGDdgsmhDYGg-71" value="" style="shape=partialRectangle;html=1;whiteSpace=wrap;connectable=0;strokeColor=inherit;overflow=hidden;fillColor=none;top=0;left=0;bottom=0;right=0;pointerEvents=1;" parent="1myl8zjfkGDdgsmhDYGg-65" vertex="1">
                    <mxGeometry x="1100" width="169" height="106" as="geometry">
                        <mxRectangle width="169" height="106" as="alternateBounds"/>
                    </mxGeometry>
                </mxCell>
                <mxCell id="1myl8zjfkGDdgsmhDYGg-72" value="" style="shape=partialRectangle;html=1;whiteSpace=wrap;connectable=0;strokeColor=inherit;overflow=hidden;fillColor=none;top=0;left=0;bottom=0;right=0;pointerEvents=1;" parent="1myl8zjfkGDdgsmhDYGg-65" vertex="1">
                    <mxGeometry x="1269" width="211" height="106" as="geometry">
                        <mxRectangle width="211" height="106" as="alternateBounds"/>
                    </mxGeometry>
                </mxCell>
                <mxCell id="1myl8zjfkGDdgsmhDYGg-75" value="" style="shape=tableRow;horizontal=0;startSize=0;swimlaneHead=0;swimlaneBody=0;strokeColor=inherit;top=0;left=0;bottom=0;right=0;collapsible=0;dropTarget=0;fillColor=none;points=[[0,0.5],[1,0.5]];portConstraint=eastwest;" parent="1myl8zjfkGDdgsmhDYGg-34" vertex="1">
                    <mxGeometry y="426" width="1480" height="107" as="geometry"/>
                </mxCell>
                <mxCell id="1myl8zjfkGDdgsmhDYGg-76" value="&lt;strong&gt;Кол-центр банка «Стандарт»&lt;/strong&gt;" style="shape=partialRectangle;html=1;whiteSpace=wrap;connectable=0;strokeColor=inherit;overflow=hidden;fillColor=none;top=0;left=0;bottom=0;right=0;pointerEvents=1;" parent="1myl8zjfkGDdgsmhDYGg-75" vertex="1">
                    <mxGeometry width="211" height="107" as="geometry">
                        <mxRectangle width="211" height="107" as="alternateBounds"/>
                    </mxGeometry>
                </mxCell>
                <mxCell id="1myl8zjfkGDdgsmhDYGg-77" value="" style="shape=partialRectangle;html=1;whiteSpace=wrap;connectable=0;strokeColor=inherit;overflow=hidden;fillColor=none;top=0;left=0;bottom=0;right=0;pointerEvents=1;" parent="1myl8zjfkGDdgsmhDYGg-75" vertex="1">
                    <mxGeometry x="211" width="212" height="107" as="geometry">
                        <mxRectangle width="212" height="107" as="alternateBounds"/>
                    </mxGeometry>
                </mxCell>
                <mxCell id="1myl8zjfkGDdgsmhDYGg-78" value="" style="shape=partialRectangle;html=1;whiteSpace=wrap;connectable=0;strokeColor=inherit;overflow=hidden;fillColor=none;top=0;left=0;bottom=0;right=0;pointerEvents=1;" parent="1myl8zjfkGDdgsmhDYGg-75" vertex="1">
                    <mxGeometry x="423" width="211" height="107" as="geometry">
                        <mxRectangle width="211" height="107" as="alternateBounds"/>
                    </mxGeometry>
                </mxCell>
                <mxCell id="1myl8zjfkGDdgsmhDYGg-79" value="" style="shape=partialRectangle;html=1;whiteSpace=wrap;connectable=0;strokeColor=inherit;overflow=hidden;fillColor=none;top=0;left=0;bottom=0;right=0;pointerEvents=1;" parent="1myl8zjfkGDdgsmhDYGg-75" vertex="1">
                    <mxGeometry x="634" width="212" height="107" as="geometry">
                        <mxRectangle width="212" height="107" as="alternateBounds"/>
                    </mxGeometry>
                </mxCell>
                <mxCell id="1myl8zjfkGDdgsmhDYGg-80" value="" style="shape=partialRectangle;html=1;whiteSpace=wrap;connectable=0;strokeColor=inherit;overflow=hidden;fillColor=none;top=0;left=0;bottom=0;right=0;pointerEvents=1;" parent="1myl8zjfkGDdgsmhDYGg-75" vertex="1">
                    <mxGeometry x="846" width="254" height="107" as="geometry">
                        <mxRectangle width="254" height="107" as="alternateBounds"/>
                    </mxGeometry>
                </mxCell>
                <mxCell id="1myl8zjfkGDdgsmhDYGg-81" value="" style="shape=partialRectangle;html=1;whiteSpace=wrap;connectable=0;strokeColor=inherit;overflow=hidden;fillColor=none;top=0;left=0;bottom=0;right=0;pointerEvents=1;" parent="1myl8zjfkGDdgsmhDYGg-75" vertex="1">
                    <mxGeometry x="1100" width="169" height="107" as="geometry">
                        <mxRectangle width="169" height="107" as="alternateBounds"/>
                    </mxGeometry>
                </mxCell>
                <mxCell id="1myl8zjfkGDdgsmhDYGg-82" value="" style="shape=partialRectangle;html=1;whiteSpace=wrap;connectable=0;strokeColor=inherit;overflow=hidden;fillColor=none;top=0;left=0;bottom=0;right=0;pointerEvents=1;" parent="1myl8zjfkGDdgsmhDYGg-75" vertex="1">
                    <mxGeometry x="1269" width="211" height="107" as="geometry">
                        <mxRectangle width="211" height="107" as="alternateBounds"/>
                    </mxGeometry>
                </mxCell>
                <mxCell id="1myl8zjfkGDdgsmhDYGg-155" style="shape=tableRow;horizontal=0;startSize=0;swimlaneHead=0;swimlaneBody=0;strokeColor=inherit;top=0;left=0;bottom=0;right=0;collapsible=0;dropTarget=0;fillColor=none;points=[[0,0.5],[1,0.5]];portConstraint=eastwest;" parent="1myl8zjfkGDdgsmhDYGg-34" vertex="1">
                    <mxGeometry y="533" width="1480" height="107" as="geometry"/>
                </mxCell>
                <mxCell id="1myl8zjfkGDdgsmhDYGg-156" value="&lt;br&gt;&lt;strong&gt;Партнёрский кол-центр&lt;/strong&gt;&lt;br&gt;&lt;div&gt;&lt;br/&gt;&lt;/div&gt;" style="shape=partialRectangle;html=1;whiteSpace=wrap;connectable=0;strokeColor=inherit;overflow=hidden;fillColor=none;top=0;left=0;bottom=0;right=0;pointerEvents=1;" parent="1myl8zjfkGDdgsmhDYGg-155" vertex="1">
                    <mxGeometry width="211" height="107" as="geometry">
                        <mxRectangle width="211" height="107" as="alternateBounds"/>
                    </mxGeometry>
                </mxCell>
                <mxCell id="1myl8zjfkGDdgsmhDYGg-157" style="shape=partialRectangle;html=1;whiteSpace=wrap;connectable=0;strokeColor=inherit;overflow=hidden;fillColor=none;top=0;left=0;bottom=0;right=0;pointerEvents=1;" parent="1myl8zjfkGDdgsmhDYGg-155" vertex="1">
                    <mxGeometry x="211" width="212" height="107" as="geometry">
                        <mxRectangle width="212" height="107" as="alternateBounds"/>
                    </mxGeometry>
                </mxCell>
                <mxCell id="1myl8zjfkGDdgsmhDYGg-158" style="shape=partialRectangle;html=1;whiteSpace=wrap;connectable=0;strokeColor=inherit;overflow=hidden;fillColor=none;top=0;left=0;bottom=0;right=0;pointerEvents=1;" parent="1myl8zjfkGDdgsmhDYGg-155" vertex="1">
                    <mxGeometry x="423" width="211" height="107" as="geometry">
                        <mxRectangle width="211" height="107" as="alternateBounds"/>
                    </mxGeometry>
                </mxCell>
                <mxCell id="1myl8zjfkGDdgsmhDYGg-159" style="shape=partialRectangle;html=1;whiteSpace=wrap;connectable=0;strokeColor=inherit;overflow=hidden;fillColor=none;top=0;left=0;bottom=0;right=0;pointerEvents=1;" parent="1myl8zjfkGDdgsmhDYGg-155" vertex="1">
                    <mxGeometry x="634" width="212" height="107" as="geometry">
                        <mxRectangle width="212" height="107" as="alternateBounds"/>
                    </mxGeometry>
                </mxCell>
                <mxCell id="1myl8zjfkGDdgsmhDYGg-160" style="shape=partialRectangle;html=1;whiteSpace=wrap;connectable=0;strokeColor=inherit;overflow=hidden;fillColor=none;top=0;left=0;bottom=0;right=0;pointerEvents=1;" parent="1myl8zjfkGDdgsmhDYGg-155" vertex="1">
                    <mxGeometry x="846" width="254" height="107" as="geometry">
                        <mxRectangle width="254" height="107" as="alternateBounds"/>
                    </mxGeometry>
                </mxCell>
                <mxCell id="1myl8zjfkGDdgsmhDYGg-161" style="shape=partialRectangle;html=1;whiteSpace=wrap;connectable=0;strokeColor=inherit;overflow=hidden;fillColor=none;top=0;left=0;bottom=0;right=0;pointerEvents=1;" parent="1myl8zjfkGDdgsmhDYGg-155" vertex="1">
                    <mxGeometry x="1100" width="169" height="107" as="geometry">
                        <mxRectangle width="169" height="107" as="alternateBounds"/>
                    </mxGeometry>
                </mxCell>
                <mxCell id="1myl8zjfkGDdgsmhDYGg-162" style="shape=partialRectangle;html=1;whiteSpace=wrap;connectable=0;strokeColor=inherit;overflow=hidden;fillColor=none;top=0;left=0;bottom=0;right=0;pointerEvents=1;" parent="1myl8zjfkGDdgsmhDYGg-155" vertex="1">
                    <mxGeometry x="1269" width="211" height="107" as="geometry">
                        <mxRectangle width="211" height="107" as="alternateBounds"/>
                    </mxGeometry>
                </mxCell>
                <mxCell id="1myl8zjfkGDdgsmhDYGg-85" value="" style="shape=tableRow;horizontal=0;startSize=0;swimlaneHead=0;swimlaneBody=0;strokeColor=inherit;top=0;left=0;bottom=0;right=0;collapsible=0;dropTarget=0;fillColor=none;points=[[0,0.5],[1,0.5]];portConstraint=eastwest;" parent="1myl8zjfkGDdgsmhDYGg-34" vertex="1">
                    <mxGeometry y="640" width="1480" height="104" as="geometry"/>
                </mxCell>
                <mxCell id="1myl8zjfkGDdgsmhDYGg-86" value="&lt;br&gt;&lt;br&gt;&lt;strong&gt;Управление IT&lt;/strong&gt;&lt;br&gt;&lt;br&gt;&lt;div&gt;&lt;br&gt;&lt;/div&gt;" style="shape=partialRectangle;html=1;whiteSpace=wrap;connectable=0;strokeColor=inherit;overflow=hidden;fillColor=none;top=0;left=0;bottom=0;right=0;pointerEvents=1;" parent="1myl8zjfkGDdgsmhDYGg-85" vertex="1">
                    <mxGeometry width="211" height="104" as="geometry">
                        <mxRectangle width="211" height="104" as="alternateBounds"/>
                    </mxGeometry>
                </mxCell>
                <mxCell id="1myl8zjfkGDdgsmhDYGg-87" value="" style="shape=partialRectangle;html=1;whiteSpace=wrap;connectable=0;strokeColor=inherit;overflow=hidden;fillColor=none;top=0;left=0;bottom=0;right=0;pointerEvents=1;" parent="1myl8zjfkGDdgsmhDYGg-85" vertex="1">
                    <mxGeometry x="211" width="212" height="104" as="geometry">
                        <mxRectangle width="212" height="104" as="alternateBounds"/>
                    </mxGeometry>
                </mxCell>
                <mxCell id="1myl8zjfkGDdgsmhDYGg-88" value="" style="shape=partialRectangle;html=1;whiteSpace=wrap;connectable=0;strokeColor=inherit;overflow=hidden;fillColor=none;top=0;left=0;bottom=0;right=0;pointerEvents=1;" parent="1myl8zjfkGDdgsmhDYGg-85" vertex="1">
                    <mxGeometry x="423" width="211" height="104" as="geometry">
                        <mxRectangle width="211" height="104" as="alternateBounds"/>
                    </mxGeometry>
                </mxCell>
                <mxCell id="1myl8zjfkGDdgsmhDYGg-89" value="" style="shape=partialRectangle;html=1;whiteSpace=wrap;connectable=0;strokeColor=inherit;overflow=hidden;fillColor=none;top=0;left=0;bottom=0;right=0;pointerEvents=1;" parent="1myl8zjfkGDdgsmhDYGg-85" vertex="1">
                    <mxGeometry x="634" width="212" height="104" as="geometry">
                        <mxRectangle width="212" height="104" as="alternateBounds"/>
                    </mxGeometry>
                </mxCell>
                <mxCell id="1myl8zjfkGDdgsmhDYGg-90" value="" style="shape=partialRectangle;html=1;whiteSpace=wrap;connectable=0;strokeColor=inherit;overflow=hidden;fillColor=none;top=0;left=0;bottom=0;right=0;pointerEvents=1;" parent="1myl8zjfkGDdgsmhDYGg-85" vertex="1">
                    <mxGeometry x="846" width="254" height="104" as="geometry">
                        <mxRectangle width="254" height="104" as="alternateBounds"/>
                    </mxGeometry>
                </mxCell>
                <mxCell id="1myl8zjfkGDdgsmhDYGg-91" value="" style="shape=partialRectangle;html=1;whiteSpace=wrap;connectable=0;strokeColor=inherit;overflow=hidden;fillColor=none;top=0;left=0;bottom=0;right=0;pointerEvents=1;" parent="1myl8zjfkGDdgsmhDYGg-85" vertex="1">
                    <mxGeometry x="1100" width="169" height="104" as="geometry">
                        <mxRectangle width="169" height="104" as="alternateBounds"/>
                    </mxGeometry>
                </mxCell>
                <mxCell id="1myl8zjfkGDdgsmhDYGg-92" value="" style="shape=partialRectangle;html=1;whiteSpace=wrap;connectable=0;strokeColor=inherit;overflow=hidden;fillColor=none;top=0;left=0;bottom=0;right=0;pointerEvents=1;" parent="1myl8zjfkGDdgsmhDYGg-85" vertex="1">
                    <mxGeometry x="1269" width="211" height="104" as="geometry">
                        <mxRectangle width="211" height="104" as="alternateBounds"/>
                    </mxGeometry>
                </mxCell>
                <mxCell id="1myl8zjfkGDdgsmhDYGg-95" value="" style="shape=tableRow;horizontal=0;startSize=0;swimlaneHead=0;swimlaneBody=0;strokeColor=inherit;top=0;left=0;bottom=0;right=0;collapsible=0;dropTarget=0;fillColor=none;points=[[0,0.5],[1,0.5]];portConstraint=eastwest;" parent="1myl8zjfkGDdgsmhDYGg-34" vertex="1">
                    <mxGeometry y="744" width="1480" height="107" as="geometry"/>
                </mxCell>
                <mxCell id="1myl8zjfkGDdgsmhDYGg-96" value="&#xa;&lt;strong&gt;Команда цифровой трансформации розничного бизнеса&lt;/strong&gt;&#xa;&#xa;" style="shape=partialRectangle;html=1;whiteSpace=wrap;connectable=0;strokeColor=inherit;overflow=hidden;fillColor=none;top=0;left=0;bottom=0;right=0;pointerEvents=1;" parent="1myl8zjfkGDdgsmhDYGg-95" vertex="1">
                    <mxGeometry width="211" height="107" as="geometry">
                        <mxRectangle width="211" height="107" as="alternateBounds"/>
                    </mxGeometry>
                </mxCell>
                <mxCell id="1myl8zjfkGDdgsmhDYGg-97" value="" style="shape=partialRectangle;html=1;whiteSpace=wrap;connectable=0;strokeColor=inherit;overflow=hidden;fillColor=none;top=0;left=0;bottom=0;right=0;pointerEvents=1;" parent="1myl8zjfkGDdgsmhDYGg-95" vertex="1">
                    <mxGeometry x="211" width="212" height="107" as="geometry">
                        <mxRectangle width="212" height="107" as="alternateBounds"/>
                    </mxGeometry>
                </mxCell>
                <mxCell id="1myl8zjfkGDdgsmhDYGg-98" value="" style="shape=partialRectangle;html=1;whiteSpace=wrap;connectable=0;strokeColor=inherit;overflow=hidden;fillColor=none;top=0;left=0;bottom=0;right=0;pointerEvents=1;" parent="1myl8zjfkGDdgsmhDYGg-95" vertex="1">
                    <mxGeometry x="423" width="211" height="107" as="geometry">
                        <mxRectangle width="211" height="107" as="alternateBounds"/>
                    </mxGeometry>
                </mxCell>
                <mxCell id="1myl8zjfkGDdgsmhDYGg-99" value="" style="shape=partialRectangle;html=1;whiteSpace=wrap;connectable=0;strokeColor=inherit;overflow=hidden;fillColor=none;top=0;left=0;bottom=0;right=0;pointerEvents=1;" parent="1myl8zjfkGDdgsmhDYGg-95" vertex="1">
                    <mxGeometry x="634" width="212" height="107" as="geometry">
                        <mxRectangle width="212" height="107" as="alternateBounds"/>
                    </mxGeometry>
                </mxCell>
                <mxCell id="1myl8zjfkGDdgsmhDYGg-100" value="" style="shape=partialRectangle;html=1;whiteSpace=wrap;connectable=0;strokeColor=inherit;overflow=hidden;fillColor=none;top=0;left=0;bottom=0;right=0;pointerEvents=1;" parent="1myl8zjfkGDdgsmhDYGg-95" vertex="1">
                    <mxGeometry x="846" width="254" height="107" as="geometry">
                        <mxRectangle width="254" height="107" as="alternateBounds"/>
                    </mxGeometry>
                </mxCell>
                <mxCell id="1myl8zjfkGDdgsmhDYGg-101" value="" style="shape=partialRectangle;html=1;whiteSpace=wrap;connectable=0;strokeColor=inherit;overflow=hidden;fillColor=none;top=0;left=0;bottom=0;right=0;pointerEvents=1;" parent="1myl8zjfkGDdgsmhDYGg-95" vertex="1">
                    <mxGeometry x="1100" width="169" height="107" as="geometry">
                        <mxRectangle width="169" height="107" as="alternateBounds"/>
                    </mxGeometry>
                </mxCell>
                <mxCell id="1myl8zjfkGDdgsmhDYGg-102" value="" style="shape=partialRectangle;html=1;whiteSpace=wrap;connectable=0;strokeColor=inherit;overflow=hidden;fillColor=none;top=0;left=0;bottom=0;right=0;pointerEvents=1;" parent="1myl8zjfkGDdgsmhDYGg-95" vertex="1">
                    <mxGeometry x="1269" width="211" height="107" as="geometry">
                        <mxRectangle width="211" height="107" as="alternateBounds"/>
                    </mxGeometry>
                </mxCell>
                <mxCell id="1myl8zjfkGDdgsmhDYGg-145" value="интернет банк" style="rounded=0;whiteSpace=wrap;html=1;" parent="1" vertex="1">
                    <mxGeometry x="310" y="1130" width="120" height="60" as="geometry"/>
                </mxCell>
                <mxCell id="1myl8zjfkGDdgsmhDYGg-150" value="сайт" style="rounded=0;whiteSpace=wrap;html=1;" parent="1" vertex="1">
                    <mxGeometry x="470" y="1130" width="120" height="60" as="geometry"/>
                </mxCell>
                <mxCell id="1myl8zjfkGDdgsmhDYGg-151" value="&lt;div align=&quot;left&quot;&gt;&lt;font style=&quot;font-size: 14px;&quot;&gt;&lt;b&gt;&amp;nbsp; &amp;nbsp; &amp;nbsp;телеком&amp;nbsp;&lt;/b&gt;&lt;/font&gt;&lt;/div&gt;&lt;div align=&quot;left&quot;&gt;&lt;font style=&quot;font-size: 14px;&quot;&gt;&lt;b&gt;&amp;nbsp; &amp;nbsp; оператор&lt;/b&gt;&lt;/font&gt;&lt;/div&gt;" style="rounded=0;whiteSpace=wrap;html=1;fillColor=#dae8fc;strokeColor=#6c8ebf;align=left;" parent="1" vertex="1">
                    <mxGeometry x="780" y="450" width="200" height="90" as="geometry"/>
                </mxCell>
                <mxCell id="1myl8zjfkGDdgsmhDYGg-153" value="&lt;font style=&quot;font-size: 19px;&quot;&gt;&lt;b style=&quot;&quot;&gt;АБС&lt;/b&gt;&lt;/font&gt;" style="rounded=0;whiteSpace=wrap;html=1;fillColor=#dae8fc;strokeColor=#6c8ebf;" parent="1" vertex="1">
                    <mxGeometry x="1120" y="350" width="110" height="510" as="geometry"/>
                </mxCell>
                <mxCell id="1myl8zjfkGDdgsmhDYGg-154" value="&lt;font style=&quot;font-size: 20px;&quot;&gt;Процесс открытия депозита&lt;/font&gt;" style="text;strokeColor=none;fillColor=none;html=1;fontSize=24;fontStyle=1;verticalAlign=middle;align=center;rounded=0;shadow=1;" parent="1" vertex="1">
                    <mxGeometry x="480" y="140" width="780" height="40" as="geometry"/>
                </mxCell>
                <mxCell id="1myl8zjfkGDdgsmhDYGg-170" value="&lt;div&gt;&lt;font style=&quot;font-size: 14px;&quot;&gt;&lt;b&gt;Система партнерского&lt;/b&gt;&lt;/font&gt;&lt;/div&gt;&lt;div&gt;&lt;font style=&quot;font-size: 14px;&quot;&gt;&lt;b&gt;&amp;nbsp;кол-центра&lt;/b&gt;&lt;/font&gt;&lt;/div&gt;" style="rounded=0;whiteSpace=wrap;html=1;fillColor=#dae8fc;strokeColor=#6c8ebf;" parent="1" vertex="1">
                    <mxGeometry x="1000" y="790" width="107.5" height="60" as="geometry"/>
                </mxCell>
                <mxCell id="1myl8zjfkGDdgsmhDYGg-146" value="&lt;font style=&quot;font-size: 14px;&quot;&gt;&lt;b&gt;Система кол-центра&lt;/b&gt;&lt;/font&gt;" style="rounded=0;whiteSpace=wrap;html=1;fillColor=#dae8fc;strokeColor=#6c8ebf;" parent="1" vertex="1">
                    <mxGeometry x="1000" y="680" width="110" height="60" as="geometry"/>
                </mxCell>
                <mxCell id="1myl8zjfkGDdgsmhDYGg-149" value="&lt;b&gt;Смс шлюз&amp;nbsp;&lt;/b&gt;" style="rounded=0;whiteSpace=wrap;html=1;fillColor=#dae8fc;strokeColor=#6c8ebf;" parent="1" vertex="1">
                    <mxGeometry x="870" y="480" width="85" height="40" as="geometry"/>
                </mxCell>
            </root>
        </mxGraphModel>
    </diagram>
</mxfile>